<?xml version="1.0" standalone="no"?>
<!DOCTYPE svg PUBLIC "-//W3C//DTD SVG 20010904//EN"
 "http://www.w3.org/TR/2001/REC-SVG-20010904/DTD/svg10.dtd">
<svg version="1.0" xmlns="http://www.w3.org/2000/svg"
 width="512.000000pt" height="512.000000pt" viewBox="0 0 512.000000 512.000000"
 preserveAspectRatio="xMidYMid meet">

<g transform="translate(0.000000,512.000000) scale(0.100000,-0.100000)"
fill="#000000" stroke="none">
<path d="M2225 4208 c-11 -6 -23 -16 -27 -22 -4 -6 -8 -83 -8 -171 0 -88 -3
-217 -7 -287 l-6 -126 -33 -7 c-46 -8 -139 -73 -179 -124 -124 -156 -97 -401
57 -523 22 -17 65 -41 96 -54 l57 -23 3 -120 3 -121 -261 0 -260 0 0 -70 0
-70 293 0 292 -1 270 -67 270 -68 3 -352 c2 -347 2 -352 -18 -352 -19 0 -20
-6 -20 -89 0 -85 1 -91 26 -110 35 -28 69 -26 99 4 23 22 25 32 25 115 0 73 3
90 15 90 13 0 15 50 15 394 0 353 -2 395 -16 407 -10 8 -143 46 -298 85 l-281
70 -3 127 c-2 97 0 128 10 131 117 34 200 101 250 204 30 61 33 74 33 162 0
82 -4 103 -26 151 -45 96 -127 170 -225 204 l-35 12 -3 94 c-2 52 -4 179 -5
282 -1 185 -1 188 -26 212 -26 27 -49 31 -80 13z m73 -904 c49 -34 48 -97 -2
-130 -65 -42 -150 46 -103 107 30 39 70 48 105 23z"/>
<path d="M1473 3455 c-32 -14 -43 -32 -43 -71 0 -61 90 -88 129 -38 26 33 26
54 1 86 -25 32 -49 39 -87 23z"/>
<path d="M1905 2385 c-14 -13 -25 -36 -25 -50 0 -35 42 -75 79 -75 35 0 71 39
71 77 0 32 -42 73 -75 73 -14 0 -37 -11 -50 -25z"/>
<path d="M2581 2154 c-42 -54 -13 -118 54 -118 67 0 96 64 54 118 -15 19 -30
26 -54 26 -24 0 -39 -7 -54 -26z"/>
<path d="M3042 2163 c-12 -10 -24 -30 -28 -45 -5 -22 0 -33 24 -58 36 -35 60
-38 96 -9 52 41 23 129 -43 129 -16 0 -38 -8 -49 -17z"/>
<path d="M2220 1580 c0 -94 2 -103 25 -125 30 -30 64 -32 99 -4 25 19 26 25
26 114 l0 93 -57 6 c-32 4 -66 9 -75 12 -16 5 -18 -4 -18 -96z"/>
<path d="M2483 1496 l7 -154 -44 -26 c-25 -15 -57 -45 -73 -71 -27 -43 -30
-44 -80 -45 -66 0 -81 -6 -98 -40 -11 -21 -12 -35 -4 -58 12 -36 45 -52 109
-52 44 0 51 -3 64 -28 45 -86 152 -135 247 -112 56 14 119 63 145 112 13 25
20 28 64 28 64 0 97 16 109 52 8 23 7 37 -4 58 -18 34 -32 40 -100 40 -52 0
-53 1 -79 45 -16 27 -44 55 -71 71 l-45 26 7 154 6 154 -83 0 -83 0 6 -154z"/>
<path d="M1302 647 c-41 -43 -19 -109 40 -123 22 -5 34 0 59 25 25 25 30 37
25 59 -15 60 -84 82 -124 39z"/>
<path d="M3727 659 c-48 -28 -40 -107 12 -129 74 -30 136 64 78 118 -25 24
-61 28 -90 11z"/>
</g>
</svg>
